<svg width="26" height="26" viewBox="0 0 26 26" fill="none" xmlns="http://www.w3.org/2000/svg">
<path d="M12.1562 19.25H14.0312V14.0625H19.25V12.1875H14.0312V6.75H12.1562V12.1875H6.75V14.0625H12.1562V19.25ZM13 25.5C11.2917 25.5 9.67708 25.1719 8.15625 24.5156C6.63542 23.8594 5.30729 22.9635 4.17188 21.8281C3.03646 20.6927 2.14062 19.3646 1.48437 17.8438C0.828125 16.3229 0.5 14.6979 0.5 12.9688C0.5 11.2604 0.828125 9.64583 1.48437 8.125C2.14062 6.60417 3.03646 5.28125 4.17188 4.15625C5.30729 3.03125 6.63542 2.14062 8.15625 1.48437C9.67708 0.828125 11.3021 0.5 13.0312 0.5C14.7396 0.5 16.3542 0.828125 17.875 1.48437C19.3958 2.14062 20.7188 3.03125 21.8438 4.15625C22.9688 5.28125 23.8594 6.60417 24.5156 8.125C25.1719 9.64583 25.5 11.2708 25.5 13C25.5 14.7083 25.1719 16.3229 24.5156 17.8438C23.8594 19.3646 22.9688 20.6927 21.8438 21.8281C20.7188 22.9635 19.3958 23.8594 17.875 24.5156C16.3542 25.1719 14.7292 25.5 13 25.5ZM13.0312 23.625C15.9687 23.625 18.4688 22.5885 20.5312 20.5156C22.5938 18.4427 23.625 15.9271 23.625 12.9688C23.625 10.0313 22.5938 7.53125 20.5312 5.46875C18.4688 3.40625 15.9583 2.375 13 2.375C10.0625 2.375 7.55729 3.40625 5.48438 5.46875C3.41146 7.53125 2.375 10.0417 2.375 13C2.375 15.9375 3.41146 18.4427 5.48438 20.5156C7.55729 22.5885 10.0729 23.625 13.0312 23.625Z" fill="#959595"/>
</svg>
