<svg width="28" height="26" viewBox="0 0 28 26" fill="none" xmlns="http://www.w3.org/2000/svg">
<path d="M21.8125 9.25L20.4375 6.3125L17.5 4.9375L20.4375 3.5625L21.8125 0.625L23.1875 3.5625L26.125 4.9375L23.1875 6.3125L21.8125 9.25ZM24.4375 18.2812L23.5 16.3125L21.5312 15.375L23.5 14.4375L24.4375 12.4688L25.375 14.4375L27.3438 15.375L25.375 16.3125L24.4375 18.2812ZM8.09375 25.625L7.78125 22.75C7.48958 22.7083 7.1875 22.6146 6.875 22.4688C6.5625 22.3229 6.29167 22.1458 6.0625 21.9375L3.625 22.9688L0.875 18.4688L3.25 16.9062C3.14583 16.5521 3.09375 16.2396 3.09375 15.9688C3.09375 15.6979 3.14583 15.3854 3.25 15.0312L0.875 13.4688L3.625 8.96875L6.0625 10C6.29167 9.79167 6.5625 9.61458 6.875 9.46875C7.1875 9.32292 7.48958 9.22917 7.78125 9.1875L8.09375 6.3125H13.3438L13.6562 9.1875C13.9479 9.22917 14.25 9.32292 14.5625 9.46875C14.875 9.61458 15.1458 9.79167 15.375 10L17.8125 8.96875L20.5625 13.4688L18.1875 15.0312C18.2917 15.3854 18.3438 15.6979 18.3438 15.9688C18.3438 16.2396 18.2917 16.5521 18.1875 16.9062L20.5625 18.4688L17.8125 22.9688L15.375 21.9375C15.1458 22.1458 14.875 22.3229 14.5625 22.4688C14.25 22.6146 13.9479 22.7083 13.6562 22.75L13.3438 25.625H8.09375ZM10.7188 19.5625C11.7604 19.5625 12.6198 19.224 13.2969 18.5469C13.974 17.8698 14.3125 17.0104 14.3125 15.9688C14.3125 14.9271 13.974 14.0677 13.2969 13.3906C12.6198 12.7135 11.7604 12.375 10.7188 12.375C9.67708 12.375 8.81771 12.7135 8.14062 13.3906C7.46354 14.0677 7.125 14.9271 7.125 15.9688C7.125 17.0104 7.46354 17.8698 8.14062 18.5469C8.81771 19.224 9.67708 19.5625 10.7188 19.5625ZM10.7188 17.6875C10.2188 17.6875 9.80729 17.526 9.48438 17.2031C9.16146 16.8802 9 16.4688 9 15.9688C9 15.4687 9.16146 15.0573 9.48438 14.7344C9.80729 14.4115 10.2188 14.25 10.7188 14.25C11.2188 14.25 11.6302 14.4115 11.9531 14.7344C12.276 15.0573 12.4375 15.4687 12.4375 15.9688C12.4375 16.4688 12.276 16.8802 11.9531 17.2031C11.6302 17.526 11.2188 17.6875 10.7188 17.6875ZM9.65625 23.75H11.7812L12.0312 21.375C12.6354 21.2292 13.1875 21.0208 13.6875 20.75C14.1875 20.4792 14.6458 20.125 15.0625 19.6875L17.0938 20.5938L18.125 18.9688L16.1875 17.5938C16.4167 17.0729 16.5313 16.5312 16.5313 15.9688C16.5313 15.4062 16.4167 14.8646 16.1875 14.3438L18.125 12.9688L17.0938 11.3438L15.0625 12.25C14.6458 11.8125 14.1875 11.4583 13.6875 11.1875C13.1875 10.9167 12.6354 10.7083 12.0312 10.5625L11.7812 8.1875H9.65625L9.40625 10.5625C8.80208 10.7083 8.25 10.9167 7.75 11.1875C7.25 11.4583 6.79167 11.8125 6.375 12.25L4.34375 11.3438L3.3125 12.9688L5.25 14.3438C5.02083 14.8646 4.90625 15.4062 4.90625 15.9688C4.90625 16.5312 5.02083 17.0729 5.25 17.5938L3.3125 18.9688L4.34375 20.5938L6.375 19.6875C6.79167 20.125 7.25 20.4792 7.75 20.75C8.25 21.0208 8.80208 21.2292 9.40625 21.375L9.65625 23.75Z" fill="#006EBE"/>
</svg>
