<svg xmlns="http://www.w3.org/2000/svg" viewBox="0 0 448 512">
  <path fill="#424242" d="m128,0c17.7,0 32,14.3 32,32l0,32l128,0l0,-32c0,-17.7 14.3,-32 32,-32s32,14.3 32,32l0,32l48,0c26.5,0 48,21.5 48,48l0,48l-448,0l0,-48c0,-26.5 21.5,-48 48,-48l48,0l0,-32c0,-17.7 14.3,-32 32,-32zm-128,192l448,0l0,272c0,26.5 -21.5,48 -48,48l-352,0c-26.5,0 -48,-21.5 -48,-48l0,-272zm64,80l0,32c0,8.8 7.2,16 16,16l32,0c8.8,0 16,-7.2 16,-16l0,-32c0,-8.8 -7.2,-16 -16,-16l-32,0c-8.8,0 -16,7.2 -16,16zm128,0l0,32c0,8.8 7.2,16 16,16l32,0c8.8,0 16,-7.2 16,-16l0,-32c0,-8.8 -7.2,-16 -16,-16l-32,0c-8.8,0 -16,7.2 -16,16zm144,-16c-8.8,0 -16,7.2 -16,16l0,32c0,8.8 7.2,16 16,16l32,0c8.8,0 16,-7.2 16,-16l0,-32c0,-8.8 -7.2,-16 -16,-16l-32,0zm-272,144l0,32c0,8.8 7.2,16 16,16l32,0c8.8,0 16,-7.2 16,-16l0,-32c0,-8.8 -7.2,-16 -16,-16l-32,0c-8.8,0 -16,7.2 -16,16zm144,-16c-8.8,0 -16,7.2 -16,16l0,32c0,8.8 7.2,16 16,16l32,0c8.8,0 16,-7.2 16,-16l0,-32c0,-8.8 -7.2,-16 -16,-16l-32,0zm112,16l0,32c0,8.8 7.2,16 16,16l32,0c8.8,0 16,-7.2 16,-16l0,-32c0,-8.8 -7.2,-16 -16,-16l-32,0c-8.8,0 -16,7.2 -16,16z"/>
</svg>