<svg width="18" height="28" viewBox="0 0 18 28" fill="none" xmlns="http://www.w3.org/2000/svg">
<path d="M3.58335 27.3337C2.7778 27.3337 2.0903 27.0489 1.52085 26.4795C0.951409 25.91 0.666687 25.2225 0.666687 24.417C0.666687 23.6114 0.951409 22.9239 1.52085 22.3545C2.0903 21.785 2.7778 21.5003 3.58335 21.5003C4.38891 21.5003 5.07641 21.785 5.64585 22.3545C6.2153 22.9239 6.50002 23.6114 6.50002 24.417C6.50002 25.2225 6.2153 25.91 5.64585 26.4795C5.07641 27.0489 4.38891 27.3337 3.58335 27.3337ZM14.4167 27.3337C13.6111 27.3337 12.9236 27.0489 12.3542 26.4795C11.7847 25.91 11.5 25.2225 11.5 24.417C11.5 23.6114 11.7847 22.9239 12.3542 22.3545C12.9236 21.785 13.6111 21.5003 14.4167 21.5003C15.2222 21.5003 15.9097 21.785 16.4792 22.3545C17.0486 22.9239 17.3334 23.6114 17.3334 24.417C17.3334 25.2225 17.0486 25.91 16.4792 26.4795C15.9097 27.0489 15.2222 27.3337 14.4167 27.3337ZM3.58335 16.917C2.7778 16.917 2.0903 16.6323 1.52085 16.0628C0.951409 15.4934 0.666687 14.8059 0.666687 14.0003C0.666687 13.1948 0.951409 12.5073 1.52085 11.9378C2.0903 11.3684 2.7778 11.0837 3.58335 11.0837C4.38891 11.0837 5.07641 11.3684 5.64585 11.9378C6.2153 12.5073 6.50002 13.1948 6.50002 14.0003C6.50002 14.8059 6.2153 15.4934 5.64585 16.0628C5.07641 16.6323 4.38891 16.917 3.58335 16.917ZM14.4167 16.917C13.6111 16.917 12.9236 16.6323 12.3542 16.0628C11.7847 15.4934 11.5 14.8059 11.5 14.0003C11.5 13.1948 11.7847 12.5073 12.3542 11.9378C12.9236 11.3684 13.6111 11.0837 14.4167 11.0837C15.2222 11.0837 15.9097 11.3684 16.4792 11.9378C17.0486 12.5073 17.3334 13.1948 17.3334 14.0003C17.3334 14.8059 17.0486 15.4934 16.4792 16.0628C15.9097 16.6323 15.2222 16.917 14.4167 16.917ZM3.58335 6.50033C2.7778 6.50033 2.0903 6.2156 1.52085 5.64616C0.951409 5.07671 0.666687 4.38921 0.666687 3.58366C0.666687 2.7781 0.951409 2.0906 1.52085 1.52116C2.0903 0.951714 2.7778 0.666992 3.58335 0.666992C4.38891 0.666992 5.07641 0.951714 5.64585 1.52116C6.2153 2.0906 6.50002 2.7781 6.50002 3.58366C6.50002 4.38921 6.2153 5.07671 5.64585 5.64616C5.07641 6.2156 4.38891 6.50033 3.58335 6.50033ZM14.4167 6.50033C13.6111 6.50033 12.9236 6.2156 12.3542 5.64616C11.7847 5.07671 11.5 4.38921 11.5 3.58366C11.5 2.7781 11.7847 2.0906 12.3542 1.52116C12.9236 0.951714 13.6111 0.666992 14.4167 0.666992C15.2222 0.666992 15.9097 0.951714 16.4792 1.52116C17.0486 2.0906 17.3334 2.7781 17.3334 3.58366C17.3334 4.38921 17.0486 5.07671 16.4792 5.64616C15.9097 6.2156 15.2222 6.50033 14.4167 6.50033Z" fill="#959595"/>
</svg>
