<svg width="30" height="30" viewBox="0 0 30 30" fill="none" xmlns="http://www.w3.org/2000/svg">
<path fill-rule="evenodd" clip-rule="evenodd" d="M6.10468 27C5.53628 27 5.0434 26.7921 4.62603 26.3762C4.20868 25.9604 4 25.4693 4 24.9029V5.95132C4 5.38297 4.20868 4.89014 4.62603 4.47283C5.0434 4.05551 5.53628 3.84684 6.10468 3.84684H8.04618V2H10.1797V3.84684H20.4319V2H22.5655V3.84684H24.507C25.0774 3.84684 25.572 4.05551 25.9908 4.47283C26.4096 4.89014 26.619 5.38297 26.619 5.95132V18.5L24.5 16L24.507 18.3182V11.7334H6.10468V24.9029L16.5 25L20.5 27H6.10468ZM24.507 9.88658H6.10468V5.95132H24.507V9.88658Z" fill="#006EBE"/>
<path d="M22.5699 23.517L23.517 22.6005L21.1645 20.2292V17.3149H19.9119V20.7453L22.5699 23.517ZM20.4945 27C19.5969 27 18.7541 26.8301 17.9661 26.4903C17.1781 26.1505 16.4901 25.6868 15.9021 25.0992C15.3141 24.5115 14.8501 23.824 14.51 23.0365C14.17 22.249 14 21.4066 14 20.5093C14 19.612 14.171 18.7688 14.513 17.9796C14.855 17.1905 15.3185 16.5035 15.9033 15.9186C16.4882 15.3338 17.1747 14.8678 17.9629 14.5207C18.7511 14.1736 19.5942 14 20.4924 14C21.3905 14 22.2336 14.1736 23.0218 14.5207C23.81 14.8678 24.4965 15.3338 25.0814 15.9186C25.6662 16.5035 26.1322 17.19 26.4793 17.9782C26.8264 18.7664 27 19.6095 27 20.5076C27 21.4058 26.8264 22.2489 26.4793 23.0371C26.1322 23.8253 25.6662 24.5118 25.0814 25.0967C24.4965 25.6815 23.8102 26.145 23.0225 26.487C22.2347 26.829 21.3921 27 20.4945 27ZM20.4846 25.564C21.8748 25.564 23.0664 25.0727 24.0593 24.0899C25.0523 23.1071 25.5488 21.9156 25.5488 20.5153C25.5488 19.115 25.053 17.9209 24.0614 16.933C23.0698 15.9452 21.8801 15.4512 20.4925 15.4512C19.0972 15.4512 17.9056 15.9445 16.9177 16.9311C15.9299 17.9177 15.436 19.1099 15.436 20.5076C15.436 21.913 15.9298 23.1071 16.9176 24.0899C17.9054 25.0727 19.0944 25.564 20.4846 25.564Z" fill="#006EBE"/>
</svg>
