<svg width="30" height="30" viewBox="0 0 30 30" fill="none" xmlns="http://www.w3.org/2000/svg">
<path d="M15.4348 22V10.8H12.8261V8H17.5217V22H15.4348ZM21.1739 22V15.5833C21.1739 15 21.3116 14.5236 21.587 14.1542C21.8623 13.7847 22.2174 13.6 22.6522 13.6H26.913V10.8H21.1739V8H27.5217C27.9565 8 28.3116 8.18472 28.587 8.55417C28.8623 8.92361 29 9.4 29 9.98333V14.4167C29 15 28.8623 15.4764 28.587 15.8458C28.3116 16.2153 27.9565 16.4 27.5217 16.4H23.2609V19.2H29V22H21.1739Z" fill="#006EBE"/>
<path d="M1 19.2V22H7.34783C7.78261 22 8.13768 21.8153 8.41304 21.4458C8.68841 21.0764 8.82609 20.6 8.82609 20.0167V9.98333C8.82609 9.4 8.68841 8.92361 8.41304 8.55417C8.13768 8.18472 7.78261 8 7.34783 8H1V10.8H6.73913V13.6H2.73913V16.4H6.73913V19.2H1Z" fill="#006EBE"/>
<path d="M11.1413 22H12.5326L12.5326 19.6667H11.1413H10.413V22H11.1413Z" fill="#006EBE"/>
</svg>
