<svg width="26" height="14" viewBox="0 0 26 14" fill="none" xmlns="http://www.w3.org/2000/svg">
<path d="M12.0625 13.25H6.75C5.02083 13.25 3.54688 12.6406 2.32813 11.4219C1.10938 10.2031 0.5 8.72917 0.5 7C0.5 5.27083 1.10938 3.79687 2.32813 2.57812C3.54688 1.35937 5.02083 0.75 6.75 0.75H12.0625V2.625H6.75C5.54167 2.625 4.51042 3.05208 3.65625 3.90625C2.80208 4.76042 2.375 5.79167 2.375 7C2.375 8.20833 2.80208 9.23958 3.65625 10.0938C4.51042 10.9479 5.54167 11.375 6.75 11.375H12.0625V13.25ZM8.15625 7.9375V6.0625H17.8438V7.9375H8.15625ZM13.9375 13.25V11.375H19.25C20.4583 11.375 21.4896 10.9479 22.3438 10.0938C23.1979 9.23958 23.625 8.20833 23.625 7C23.625 5.79167 23.1979 4.76042 22.3438 3.90625C21.4896 3.05208 20.4583 2.625 19.25 2.625H13.9375V0.75H19.25C20.9792 0.75 22.4531 1.35937 23.6719 2.57812C24.8906 3.79687 25.5 5.27083 25.5 7C25.5 8.72917 24.8906 10.2031 23.6719 11.4219C22.4531 12.6406 20.9792 13.25 19.25 13.25H13.9375Z" fill="#006EBE"/>
</svg>
