<svg width="24" height="14" viewBox="0 0 24 14" fill="none" xmlns="http://www.w3.org/2000/svg">
<path d="M1.6875 13.25C1.41667 13.25 1.19271 13.1615 1.01563 12.9844C0.838542 12.8073 0.75 12.5833 0.75 12.3125C0.75 12.0417 0.838542 11.8177 1.01563 11.6406C1.19271 11.4635 1.41667 11.375 1.6875 11.375C1.95833 11.375 2.18229 11.4635 2.35937 11.6406C2.53646 11.8177 2.625 12.0417 2.625 12.3125C2.625 12.5833 2.53646 12.8073 2.35937 12.9844C2.18229 13.1615 1.95833 13.25 1.6875 13.25ZM1.6875 7.9375C1.41667 7.9375 1.19271 7.84896 1.01563 7.67188C0.838542 7.49479 0.75 7.27083 0.75 7C0.75 6.72917 0.838542 6.50521 1.01563 6.32812C1.19271 6.15104 1.41667 6.0625 1.6875 6.0625C1.95833 6.0625 2.18229 6.15104 2.35937 6.32812C2.53646 6.50521 2.625 6.72917 2.625 7C2.625 7.27083 2.53646 7.49479 2.35937 7.67188C2.18229 7.84896 1.95833 7.9375 1.6875 7.9375ZM1.6875 2.625C1.41667 2.625 1.19271 2.53646 1.01563 2.35938C0.838542 2.18229 0.75 1.95833 0.75 1.6875C0.75 1.41667 0.838542 1.19271 1.01563 1.01563C1.19271 0.838542 1.41667 0.75 1.6875 0.75C1.95833 0.75 2.18229 0.838542 2.35937 1.01563C2.53646 1.19271 2.625 1.41667 2.625 1.6875C2.625 1.95833 2.53646 2.18229 2.35937 2.35938C2.18229 2.53646 1.95833 2.625 1.6875 2.625ZM6.0625 13.25V11.375H23.25V13.25H6.0625ZM6.0625 7.9375V6.0625H23.25V7.9375H6.0625ZM6.0625 2.625V0.75H23.25V2.625H6.0625Z" fill="#006EBE"/>
</svg>
