<svg width="30" height="30" viewBox="0 0 30 30" fill="none" xmlns="http://www.w3.org/2000/svg">
<path d="M3.70968 22V10.8H1V8H5.87742V22H3.70968ZM9.67097 22V15.5833C9.67097 15 9.81398 14.5236 10.1 14.1542C10.386 13.7847 10.7548 13.6 11.2065 13.6H15.6323V10.8H9.67097V8H16.2645C16.7161 8 17.0849 8.18472 17.371 8.55417C17.657 8.92361 17.8 9.4 17.8 9.98333V14.4167C17.8 15 17.657 15.4764 17.371 15.8458C17.0849 16.2153 16.7161 16.4 16.2645 16.4H11.8387V19.2H17.8V22H9.67097ZM20.871 22V19.2H26.8323V16.4H22.6774V13.6H26.8323V10.8H20.871V8H27.4645C27.9161 8 28.2849 8.18472 28.571 8.55417C28.857 8.92361 29 9.4 29 9.98333V20.0167C29 20.6 28.857 21.0764 28.571 21.4458C28.2849 21.8153 27.9161 22 27.4645 22H20.871Z" fill="#006EBE"/>
</svg>
