<svg width="26" height="24" viewBox="0 0 26 24" fill="none" xmlns="http://www.w3.org/2000/svg">
<path d="M13 18.6875C14.5 18.6875 15.7604 18.1771 16.7812 17.1562C17.8021 16.1354 18.3125 14.8646 18.3125 13.3438C18.3125 11.8438 17.8021 10.5885 16.7812 9.57812C15.7604 8.56771 14.5 8.0625 13 8.0625C11.4792 8.0625 10.2135 8.56771 9.20312 9.57812C8.19271 10.5885 7.6875 11.8438 7.6875 13.3438C7.6875 14.8646 8.19271 16.1354 9.20312 17.1562C10.2135 18.1771 11.4792 18.6875 13 18.6875ZM13 16.8125C12 16.8125 11.1771 16.4844 10.5312 15.8281C9.88542 15.1719 9.5625 14.3438 9.5625 13.3438C9.5625 12.3646 9.88542 11.5521 10.5312 10.9062C11.1771 10.2604 12 9.9375 13 9.9375C13.9792 9.9375 14.7969 10.2604 15.4531 10.9062C16.1094 11.5521 16.4375 12.3646 16.4375 13.3438C16.4375 14.3438 16.1094 15.1719 15.4531 15.8281C14.7969 16.4844 13.9792 16.8125 13 16.8125ZM2.375 23.25C1.875 23.25 1.4375 23.0625 1.0625 22.6875C0.6875 22.3125 0.5 21.875 0.5 21.375V5.34375C0.5 4.86458 0.6875 4.43229 1.0625 4.04687C1.4375 3.66146 1.875 3.46875 2.375 3.46875H6.96875L9.25 0.75H16.75L19.0312 3.46875H23.625C24.1042 3.46875 24.5365 3.66146 24.9219 4.04687C25.3073 4.43229 25.5 4.86458 25.5 5.34375V21.375C25.5 21.875 25.3073 22.3125 24.9219 22.6875C24.5365 23.0625 24.1042 23.25 23.625 23.25H2.375ZM23.625 21.375V5.34375H18.1562L15.875 2.625H10.125L7.84375 5.34375H2.375V21.375H23.625Z" fill="#006EBE"/>
</svg>
