<svg width="16" height="20" viewBox="0 0 16 20" fill="none" xmlns="http://www.w3.org/2000/svg">
<path d="M2.5 20V16.3889H0V14.7222H2.5V11.6667H0V10H2.5V0H9.72222C11.3519 0 12.7315 0.564815 13.8611 1.69444C14.9907 2.82407 15.5556 4.2037 15.5556 5.83333C15.5556 7.46296 14.9907 8.84259 13.8611 9.97222C12.7315 11.1019 11.3519 11.6667 9.72222 11.6667H4.16667V14.7222H8.88889V16.3889H4.16667V20H2.5ZM4.16667 10H9.72222C10.8889 10 11.875 9.59722 12.6806 8.79167C13.4861 7.98611 13.8889 7 13.8889 5.83333C13.8889 4.66667 13.4861 3.68056 12.6806 2.875C11.875 2.06944 10.8889 1.66667 9.72222 1.66667H4.16667V10Z" fill="#006EBE"/>
</svg>
