<svg xmlns="http://www.w3.org/2000/svg" viewBox="0 0 1024 1024">
 <g>
  <g stroke="null">
   <path fill="#424242" stroke="null" d="m98.69842,16.33333c-45.98105,0 -83.36508,37.38403 -83.36508,83.36508l0,416.82542c0,45.98105 37.38403,83.36508 83.36508,83.36508l416.82542,0c45.98105,0 83.36508,-37.38403 83.36508,-83.36508l0,-416.82542c0,-45.98105 -37.38403,-83.36508 -83.36508,-83.36508l-416.82542,0zm355.60418,230.55656l-166.73017,166.73017c-12.24425,12.24425 -32.04345,12.24425 -44.15744,0l-83.36508,-83.36508c-12.24425,-12.24425 -12.24425,-32.04345 0,-44.15744s32.04345,-12.24425 44.15744,0l61.22123,61.22123l144.58632,-144.71657c12.24425,-12.24425 32.04345,-12.24425 44.15744,0s12.24425,32.04345 0,44.15744l0.13026,0.13026z" />
  </g>
  <g stroke="null">
   <path fill="#666666" stroke="null" d="m449.16667,445.77778c-44.03307,0 -79.83333,35.80026 -79.83333,79.83333l0,399.16666c0,44.03307 35.80026,79.83333 79.83333,79.83333l479,0c44.03307,0 79.83333,-35.80026 79.83333,-79.83333l0,-399.16666c0,-44.03307 -35.80026,-79.83333 -79.83333,-79.83333l-479,0zm138.46094,178.3776c11.72552,-11.72552 30.68594,-11.72552 42.28672,0l58.6276,58.6276l58.6276,-58.6276c11.72552,-11.72552 30.68594,-11.72552 42.28672,0s11.72552,30.68594 0,42.28672l-58.6276,58.6276l58.6276,58.6276c11.72552,11.72552 11.72552,30.68594 0,42.28672s-30.68594,11.72552 -42.28672,0l-58.6276,-58.6276l-58.6276,58.6276c-11.72552,11.72552 -30.68594,11.72552 -42.28672,0s-11.72552,-30.68594 0,-42.28672l58.6276,-58.6276l-58.6276,-58.6276c-11.72552,-11.72552 -11.72552,-30.68594 0,-42.28672z"/>
  </g>
 </g>
</svg>