<svg width="280" height="97" viewBox="0 0 280 97" fill="none" xmlns="http://www.w3.org/2000/svg">
<path d="M0.227273 95L15.6818 1.90909H79.2273L76.1364 20.1818H35.0909L32 39.2727H69L65.9091 57.5909H28.9091L22.7273 95H0.227273ZM136.148 30C136.39 26.5758 135.481 23.9242 133.42 22.0455C131.39 20.1667 128.178 19.2273 123.784 19.2273C120.875 19.2273 118.39 19.6061 116.33 20.3636C114.269 21.0909 112.648 22.1212 111.466 23.4545C110.284 24.7576 109.542 26.2727 109.239 28C108.966 29.3636 109.042 30.5758 109.466 31.6364C109.89 32.697 110.633 33.6364 111.693 34.4545C112.784 35.2727 114.133 35.9848 115.739 36.5909C117.375 37.197 119.208 37.7273 121.239 38.1818L128.875 40C133.299 41 137.133 42.3333 140.375 44C143.648 45.6364 146.299 47.6212 148.33 49.9545C150.36 52.2576 151.754 54.9091 152.511 57.9091C153.269 60.9091 153.33 64.2727 152.693 68C151.723 73.8788 149.405 78.9242 145.739 83.1364C142.102 87.3485 137.345 90.5758 131.466 92.8182C125.617 95.0606 118.814 96.1818 111.057 96.1818C103.299 96.1818 96.7083 95.0152 91.2841 92.6818C85.8902 90.3182 81.9811 86.7576 79.5568 82C77.1326 77.2424 76.4811 71.2424 77.6023 64H99.1023C98.7689 67 99.1477 69.5 100.239 71.5C101.36 73.5 103.087 75.0152 105.42 76.0455C107.754 77.0758 110.572 77.5909 113.875 77.5909C116.905 77.5909 119.557 77.1818 121.83 76.3636C124.133 75.5455 125.966 74.4091 127.33 72.9545C128.723 71.5 129.572 69.8333 129.875 67.9545C130.178 66.2273 129.89 64.7273 129.011 63.4545C128.163 62.1818 126.708 61.0758 124.648 60.1364C122.617 59.197 119.951 58.3485 116.648 57.5909L107.33 55.3182C99.6326 53.4394 93.7992 50.4394 89.8295 46.3182C85.8902 42.197 84.4962 36.6061 85.6477 29.5455C86.6174 23.7576 89.0114 18.697 92.8295 14.3636C96.678 10.0303 101.542 6.66666 107.42 4.27273C113.33 1.84848 119.83 0.63636 126.92 0.63636C134.133 0.63636 140.193 1.86363 145.102 4.31818C150.042 6.74242 153.602 10.1667 155.784 14.5909C157.996 18.9848 158.633 24.1212 157.693 30H136.148ZM175.057 1.90909H202.92L217.011 59.5455H218.102L251.284 1.90909H279.148L263.693 95H241.784L251.284 37.8182H250.511L218.784 94.4091H204.83L191.92 37.5H191.148L181.511 95H159.602L175.057 1.90909Z" fill="#56B0F2"/>
</svg>
