<svg xmlns="http://www.w3.org/2000/svg" viewBox="0 0 512 512">
  <path fill="#424242" d="m40,48c-13.3,0 -24,10.7 -24,24l0,48c0,13.3 10.7,24 24,24l48,0c13.3,0 24,-10.7 24,-24l0,-48c0,-13.3 -10.7,-24 -24,-24l-48,0zm152,16c-17.7,0 -32,14.3 -32,32s14.3,32 32,32l288,0c17.7,0 32,-14.3 32,-32s-14.3,-32 -32,-32l-288,0zm0,160c-17.7,0 -32,14.3 -32,32s14.3,32 32,32l288,0c17.7,0 32,-14.3 32,-32s-14.3,-32 -32,-32l-288,0zm0,160c-17.7,0 -32,14.3 -32,32s14.3,32 32,32l288,0c17.7,0 32,-14.3 32,-32s-14.3,-32 -32,-32l-288,0zm-176,-152l0,48c0,13.3 10.7,24 24,24l48,0c13.3,0 24,-10.7 24,-24l0,-48c0,-13.3 -10.7,-24 -24,-24l-48,0c-13.3,0 -24,10.7 -24,24zm24,136c-13.3,0 -24,10.7 -24,24l0,48c0,13.3 10.7,24 24,24l48,0c13.3,0 24,-10.7 24,-24l0,-48c0,-13.3 -10.7,-24 -24,-24l-48,0z"/>
</svg>