<svg width="24" height="24" viewBox="0 0 24 24" fill="none" xmlns="http://www.w3.org/2000/svg">
<path d="M6.375 18.0625C6.625 18.0625 6.84375 17.9688 7.03125 17.7812C7.21875 17.5937 7.3125 17.375 7.3125 17.125C7.3125 16.875 7.21875 16.6562 7.03125 16.4687C6.84375 16.2812 6.625 16.1875 6.375 16.1875C6.125 16.1875 5.90625 16.2812 5.71875 16.4687C5.53125 16.6562 5.4375 16.875 5.4375 17.125C5.4375 17.375 5.53125 17.5937 5.71875 17.7812C5.90625 17.9688 6.125 18.0625 6.375 18.0625ZM6.375 12.9375C6.625 12.9375 6.84375 12.8437 7.03125 12.6562C7.21875 12.4687 7.3125 12.25 7.3125 12C7.3125 11.75 7.21875 11.5313 7.03125 11.3438C6.84375 11.1563 6.625 11.0625 6.375 11.0625C6.125 11.0625 5.90625 11.1563 5.71875 11.3438C5.53125 11.5313 5.4375 11.75 5.4375 12C5.4375 12.25 5.53125 12.4687 5.71875 12.6562C5.90625 12.8437 6.125 12.9375 6.375 12.9375ZM6.375 7.8125C6.625 7.8125 6.84375 7.71875 7.03125 7.53125C7.21875 7.34375 7.3125 7.125 7.3125 6.875C7.3125 6.625 7.21875 6.40625 7.03125 6.21875C6.84375 6.03125 6.625 5.9375 6.375 5.9375C6.125 5.9375 5.90625 6.03125 5.71875 6.21875C5.53125 6.40625 5.4375 6.625 5.4375 6.875C5.4375 7.125 5.53125 7.34375 5.71875 7.53125C5.90625 7.71875 6.125 7.8125 6.375 7.8125ZM10.5 18.0625H18.125V16.1875H10.5V18.0625ZM10.5 12.9375H18.125V11.0625H10.5V12.9375ZM10.5 7.8125H18.125V5.9375H10.5V7.8125ZM2.625 23.25C2.125 23.25 1.6875 23.0625 1.3125 22.6875C0.9375 22.3125 0.75 21.875 0.75 21.375V2.625C0.75 2.125 0.9375 1.6875 1.3125 1.3125C1.6875 0.9375 2.125 0.75 2.625 0.75H21.375C21.875 0.75 22.3125 0.9375 22.6875 1.3125C23.0625 1.6875 23.25 2.125 23.25 2.625V21.375C23.25 21.875 23.0625 22.3125 22.6875 22.6875C22.3125 23.0625 21.875 23.25 21.375 23.25H2.625ZM2.625 21.375H21.375V2.625H2.625V21.375ZM2.625 2.625V21.375V2.625Z" fill="#959595"/>
</svg>
