<svg width="23" height="26" viewBox="0 0 23 26" fill="none" xmlns="http://www.w3.org/2000/svg">
<path d="M1.875 2.375V11.5938V11.4688V23.625V2.375V8.1875V2.375ZM4.96875 14.875H10.2188C10.4688 14.5208 10.7448 14.1875 11.0469 13.875C11.349 13.5625 11.6771 13.2708 12.0312 13H4.96875V14.875ZM4.96875 20.1875H8.8125C8.77083 19.875 8.75521 19.5625 8.76562 19.25C8.77604 18.9375 8.80208 18.625 8.84375 18.3125H4.96875V20.1875ZM1.875 25.5C1.375 25.5 0.9375 25.3125 0.5625 24.9375C0.1875 24.5625 0 24.125 0 23.625V2.375C0 1.875 0.1875 1.4375 0.5625 1.0625C0.9375 0.6875 1.375 0.5 1.875 0.5H13.1562L20 7.34375V12.1875C19.7083 12.0417 19.4062 11.9219 19.0938 11.8281C18.7812 11.7344 18.4583 11.6562 18.125 11.5938V8.1875H12.2188V2.375H1.875V23.625H10C10.2292 23.9792 10.4792 24.3125 10.75 24.625C11.0208 24.9375 11.3125 25.2292 11.625 25.5H1.875ZM16.7188 13.3438C18.4062 13.3438 19.8385 13.9323 21.0156 15.1094C22.1927 16.2865 22.7812 17.7188 22.7812 19.4062C22.7812 21.0938 22.1927 22.526 21.0156 23.7031C19.8385 24.8802 18.4062 25.4688 16.7188 25.4688C15.0312 25.4688 13.599 24.8802 12.4219 23.7031C11.2448 22.526 10.6562 21.0938 10.6562 19.4062C10.6562 17.7188 11.2448 16.2865 12.4219 15.1094C13.599 13.9323 15.0312 13.3438 16.7188 13.3438ZM16.75 23.2812C17 23.2812 17.2083 23.1979 17.375 23.0312C17.5417 22.8646 17.625 22.6562 17.625 22.4062C17.625 22.1562 17.5417 21.9479 17.375 21.7812C17.2083 21.6146 17 21.5312 16.75 21.5312C16.5 21.5312 16.2917 21.6146 16.125 21.7812C15.9583 21.9479 15.875 22.1562 15.875 22.4062C15.875 22.6562 15.9583 22.8646 16.125 23.0312C16.2917 23.1979 16.5 23.2812 16.75 23.2812ZM16.125 20.7188H17.375V20.375C17.375 20.125 17.4427 19.8958 17.5781 19.6875C17.7135 19.4792 17.875 19.2917 18.0625 19.125C18.375 18.8542 18.6302 18.5885 18.8281 18.3281C19.026 18.0677 19.125 17.7292 19.125 17.3125C19.125 16.6458 18.901 16.1146 18.4531 15.7188C18.0052 15.3229 17.4375 15.125 16.75 15.125C16.2083 15.125 15.7188 15.276 15.2812 15.5781C14.8438 15.8802 14.5417 16.2917 14.375 16.8125L15.5 17.3125C15.5417 17.0208 15.6823 16.776 15.9219 16.5781C16.1615 16.3802 16.4375 16.2812 16.75 16.2812C17.1042 16.2812 17.3802 16.3646 17.5781 16.5312C17.776 16.6979 17.875 16.9583 17.875 17.3125C17.875 17.5417 17.8021 17.7448 17.6562 17.9219C17.5104 18.099 17.3542 18.2708 17.1875 18.4375C17.0208 18.5833 16.8594 18.7292 16.7031 18.875C16.5469 19.0208 16.4167 19.1771 16.3125 19.3438C16.2292 19.4896 16.1771 19.6302 16.1562 19.7656C16.1354 19.901 16.125 20.0521 16.125 20.2188V20.7188Z" fill="#959595"/>
</svg>
