<svg width="24" height="24" viewBox="0 0 24 24" fill="none" xmlns="http://www.w3.org/2000/svg">
<path d="M5.89687 18.1031L14.0531 14.0813L18.075 5.925L9.91875 9.94688L5.89687 18.1031ZM12 13.125C11.6812 13.125 11.4141 13.0172 11.1984 12.8016C10.9828 12.5859 10.875 12.3188 10.875 12C10.875 11.6812 10.9828 11.4141 11.1984 11.1984C11.4141 10.9828 11.6812 10.875 12 10.875C12.3188 10.875 12.5859 10.9828 12.8016 11.1984C13.0172 11.4141 13.125 11.6812 13.125 12C13.125 12.3188 13.0172 12.5859 12.8016 12.8016C12.5859 13.0172 12.3188 13.125 12 13.125ZM12 23.25C10.4625 23.25 9.00937 22.9547 7.64062 22.3641C6.27187 21.7734 5.07656 20.9672 4.05469 19.9453C3.03281 18.9234 2.22656 17.7281 1.63594 16.3594C1.04531 14.9906 0.75 13.5375 0.75 12C0.75 10.4438 1.04531 8.98125 1.63594 7.6125C2.22656 6.24375 3.03281 5.05313 4.05469 4.04063C5.07656 3.02813 6.27187 2.22656 7.64062 1.63594C9.00937 1.04531 10.4625 0.75 12 0.75C13.5562 0.75 15.0187 1.04531 16.3875 1.63594C17.7563 2.22656 18.9469 3.02813 19.9594 4.04063C20.9719 5.05313 21.7734 6.24375 22.3641 7.6125C22.9547 8.98125 23.25 10.4438 23.25 12C23.25 13.5375 22.9547 14.9906 22.3641 16.3594C21.7734 17.7281 20.9719 18.9234 19.9594 19.9453C18.9469 20.9672 17.7563 21.7734 16.3875 22.3641C15.0187 22.9547 13.5562 23.25 12 23.25ZM12 21.5625C14.6625 21.5625 16.9219 20.6297 18.7781 18.7641C20.6344 16.8984 21.5625 14.6438 21.5625 12C21.5625 9.3375 20.6344 7.07812 18.7781 5.22187C16.9219 3.36562 14.6625 2.4375 12 2.4375C9.35625 2.4375 7.10156 3.36562 5.23594 5.22187C3.37031 7.07812 2.4375 9.3375 2.4375 12C2.4375 14.6438 3.37031 16.8984 5.23594 18.7641C7.10156 20.6297 9.35625 21.5625 12 21.5625Z" fill="#959595"/>
</svg>
