<svg width="24" height="24" viewBox="0 0 24 24" fill="none" xmlns="http://www.w3.org/2000/svg">
<path d="M21 23.2812L13.1563 15.4375L14.9375 13.6563L22.7812 21.5L21 23.2812ZM2.84375 23.2812L1.0625 21.5L10.125 12.4375L6.78125 9.09375L6.0625 9.8125L4.6875 8.4375V11.0937L3.9375 11.8438L0.125 8.03125L0.875 7.28125H3.5625L2.0625 5.78125L6.15625 1.6875C6.51042 1.33333 6.89583 1.09375 7.3125 0.96875C7.72917 0.84375 8.1875 0.78125 8.6875 0.78125C9.1875 0.78125 9.64583 0.869792 10.0625 1.04688C10.4792 1.22396 10.8646 1.48958 11.2188 1.84375L7.875 5.1875L9.375 6.6875L8.625 7.4375L11.875 10.6875L15.6875 6.875C15.5208 6.60417 15.3906 6.29167 15.2969 5.9375C15.2031 5.58333 15.1562 5.20833 15.1562 4.8125C15.1562 3.70833 15.5573 2.75521 16.3594 1.95313C17.1615 1.15104 18.1146 0.75 19.2187 0.75C19.5312 0.75 19.7969 0.78125 20.0156 0.84375C20.2344 0.90625 20.4167 0.989583 20.5625 1.09375L17.9063 3.75L20.25 6.09375L22.9063 3.4375C23.0104 3.60417 23.099 3.80729 23.1719 4.04688C23.2448 4.28646 23.2812 4.5625 23.2812 4.875C23.2812 5.97917 22.8802 6.93229 22.0781 7.73438C21.276 8.53646 20.3229 8.9375 19.2187 8.9375C18.8437 8.9375 18.5208 8.91146 18.25 8.85937C17.9792 8.80729 17.7292 8.72917 17.5 8.625L2.84375 23.2812Z" fill="#959595"/>
</svg>
