<svg width="24" height="24" viewBox="0 0 24 24" fill="none" xmlns="http://www.w3.org/2000/svg">
<path d="M5.8125 18.1875H12.8438V11.1562H5.8125V18.1875ZM5.8125 9.46875H21.5625V2.4375H5.8125V9.46875ZM14.5312 18.1875H21.5625V11.1562H14.5312V18.1875ZM5.8125 19.875C5.3625 19.875 4.96875 19.7062 4.63125 19.3687C4.29375 19.0312 4.125 18.6375 4.125 18.1875V2.4375C4.125 1.9875 4.29375 1.59375 4.63125 1.25625C4.96875 0.91875 5.3625 0.75 5.8125 0.75H21.5625C22.0125 0.75 22.4062 0.91875 22.7437 1.25625C23.0812 1.59375 23.25 1.9875 23.25 2.4375V18.1875C23.25 18.6375 23.0812 19.0312 22.7437 19.3687C22.4062 19.7062 22.0125 19.875 21.5625 19.875H5.8125ZM2.4375 23.25C1.9875 23.25 1.59375 23.0812 1.25625 22.7437C0.91875 22.4062 0.75 22.0125 0.75 21.5625V4.125H2.4375V21.5625H19.875V23.25H2.4375Z" fill="#959595"/>
</svg>
