<svg width="28" height="24" viewBox="0 0 28 24" fill="none" xmlns="http://www.w3.org/2000/svg">
<path d="M0.25 23.25V20.375C0.25 19.6667 0.416667 19.0781 0.75 18.6094C1.08333 18.1406 1.55208 17.7604 2.15625 17.4688C3.28125 16.9271 4.48438 16.4792 5.76563 16.125C7.04688 15.7708 8.5 15.5938 10.125 15.5938C11.75 15.5938 13.2031 15.7708 14.4844 16.125C15.7656 16.4792 16.9688 16.9271 18.0938 17.4688C18.6979 17.7604 19.1667 18.1406 19.5 18.6094C19.8333 19.0781 20 19.6667 20 20.375V23.25H0.25ZM2.125 21.375H18.125V20.375C18.125 20.0625 18.0365 19.8073 17.8594 19.6094C17.6823 19.4115 17.4688 19.2604 17.2188 19.1562C16.3229 18.7604 15.3229 18.3802 14.2188 18.0156C13.1146 17.651 11.75 17.4688 10.125 17.4688C8.5 17.4688 7.13542 17.651 6.03125 18.0156C4.92708 18.3802 3.92708 18.7604 3.03125 19.1562C2.78125 19.2604 2.56771 19.4115 2.39062 19.6094C2.21354 19.8073 2.125 20.0625 2.125 20.375V21.375ZM10.125 13.7188C8.75 13.7188 7.625 13.2708 6.75 12.375C5.875 11.4792 5.4375 10.3646 5.4375 9.03125H5.125C4.95833 9.03125 4.8125 8.96875 4.6875 8.84375C4.5625 8.71875 4.5 8.57292 4.5 8.40625C4.5 8.23958 4.5625 8.09375 4.6875 7.96875C4.8125 7.84375 4.95833 7.78125 5.125 7.78125H5.4375C5.4375 6.94792 5.64583 6.19792 6.0625 5.53125C6.47917 4.86458 7.02083 4.32292 7.6875 3.90625V5.125C7.6875 5.25 7.73438 5.35937 7.82812 5.45312C7.92188 5.54688 8.03125 5.59375 8.15625 5.59375C8.30208 5.59375 8.41667 5.54688 8.5 5.45312C8.58333 5.35937 8.625 5.25 8.625 5.125V3.5C8.79167 3.45833 9.02083 3.42188 9.3125 3.39063C9.60417 3.35938 9.88542 3.34375 10.1562 3.34375C10.4271 3.34375 10.7083 3.35938 11 3.39063C11.2917 3.42188 11.5208 3.45833 11.6875 3.5V5.125C11.6875 5.25 11.7292 5.35937 11.8125 5.45312C11.8958 5.54688 12.0104 5.59375 12.1562 5.59375C12.2812 5.59375 12.3906 5.54688 12.4844 5.45312C12.5781 5.35937 12.625 5.25 12.625 5.125V3.90625C13.2917 4.32292 13.8229 4.86458 14.2188 5.53125C14.6146 6.19792 14.8125 6.94792 14.8125 7.78125H15.125C15.2917 7.78125 15.4375 7.84375 15.5625 7.96875C15.6875 8.09375 15.75 8.23958 15.75 8.40625C15.75 8.57292 15.6875 8.71875 15.5625 8.84375C15.4375 8.96875 15.2917 9.03125 15.125 9.03125H14.8125C14.8125 10.3646 14.375 11.4792 13.5 12.375C12.625 13.2708 11.5 13.7188 10.125 13.7188ZM10.125 11.8438C11 11.8438 11.6875 11.5833 12.1875 11.0625C12.6875 10.5417 12.9375 9.86458 12.9375 9.03125H7.3125C7.3125 9.86458 7.5625 10.5417 8.0625 11.0625C8.5625 11.5833 9.25 11.8438 10.125 11.8438ZM19.5625 15.7188L19.5 14.8125C19.3542 14.7292 19.2031 14.6354 19.0469 14.5312C18.8906 14.4271 18.75 14.3229 18.625 14.2188L17.8125 14.6562L17.125 13.6562L17.9375 13.0625C17.8958 12.9792 17.875 12.901 17.875 12.8281V12.3594C17.875 12.2865 17.8958 12.2083 17.9375 12.125L17.125 11.5312L17.8125 10.5312L18.625 10.9688L19.0625 10.6562C19.2083 10.5521 19.3542 10.4583 19.5 10.375L19.5625 9.46875H20.8125L20.875 10.375C21.0208 10.4583 21.1667 10.5521 21.3125 10.6562L21.75 10.9688L22.5625 10.5312L23.25 11.5312L22.4375 12.125C22.4792 12.2083 22.5 12.2865 22.5 12.3594V12.8281C22.5 12.901 22.4792 12.9792 22.4375 13.0625L23.25 13.6562L22.5625 14.6562L21.75 14.2188C21.625 14.3229 21.4844 14.4271 21.3281 14.5312C21.1719 14.6354 21.0208 14.7292 20.875 14.8125L20.8125 15.7188H19.5625ZM20.1875 13.7812C20.5208 13.7812 20.8021 13.6667 21.0312 13.4375C21.2604 13.2083 21.375 12.9271 21.375 12.5938C21.375 12.2604 21.2604 11.9792 21.0312 11.75C20.8021 11.5208 20.5208 11.4062 20.1875 11.4062C19.8542 11.4062 19.5729 11.5208 19.3438 11.75C19.1146 11.9792 19 12.2604 19 12.5938C19 12.9271 19.1146 13.2083 19.3438 13.4375C19.5729 13.6667 19.8542 13.7812 20.1875 13.7812ZM22.9375 8.9375L22.6563 7.84375C22.4479 7.76042 22.2344 7.64583 22.0156 7.5C21.7969 7.35417 21.6146 7.19792 21.4688 7.03125L20.0937 7.53125L19.4687 6.4375L20.5625 5.5625C20.5208 5.45833 20.4844 5.34375 20.4531 5.21875C20.4219 5.09375 20.4062 4.96875 20.4062 4.84375C20.4062 4.71875 20.4219 4.59375 20.4531 4.46875C20.4844 4.34375 20.5208 4.22917 20.5625 4.125L19.4687 3.25L20.0937 2.15625L21.4688 2.65625C21.6146 2.48958 21.7969 2.32812 22.0156 2.17187C22.2344 2.01562 22.4479 1.90625 22.6563 1.84375L22.9375 0.75H24.125L24.4062 1.84375C24.6146 1.90625 24.8281 2.01562 25.0469 2.17187C25.2656 2.32812 25.4479 2.48958 25.5938 2.65625L26.9688 2.15625L27.5938 3.25L26.5 4.125C26.5417 4.22917 26.5781 4.34375 26.6094 4.46875C26.6406 4.59375 26.6562 4.71875 26.6562 4.84375C26.6562 4.96875 26.6406 5.09375 26.6094 5.21875C26.5781 5.34375 26.5417 5.45833 26.5 5.5625L27.5938 6.4375L26.9688 7.53125L25.5938 7.03125C25.4479 7.19792 25.2656 7.35417 25.0469 7.5C24.8281 7.64583 24.6146 7.76042 24.4062 7.84375L24.125 8.9375H22.9375ZM23.5312 6.65625C24.0521 6.65625 24.4844 6.48438 24.8281 6.14062C25.1719 5.79688 25.3438 5.36458 25.3438 4.84375C25.3438 4.32292 25.1719 3.89063 24.8281 3.54688C24.4844 3.20313 24.0521 3.03125 23.5312 3.03125C23.0104 3.03125 22.5781 3.20313 22.2344 3.54688C21.8906 3.89063 21.7188 4.32292 21.7188 4.84375C21.7188 5.36458 21.8906 5.79688 22.2344 6.14062C22.5781 6.48438 23.0104 6.65625 23.5312 6.65625ZM2.125 21.375H18.125H2.125Z" fill="#006EBE"/>
</svg>
